<?xml version="1.0" encoding="utf-8" ?>
<svg baseProfile="full" height="2048" version="1.1" width="2020" xmlns="http://www.w3.org/2000/svg" xmlns:ev="http://www.w3.org/2001/xml-events" xmlns:xlink="http://www.w3.org/1999/xlink"><defs /><polygon fill="#35d69f" points="309,464 306,467 305,467 304,468 303,468 301,470 300,470 298,472 297,472 297,473 296,474 294,474 291,477 290,477 290,478 289,479 287,479 284,482 283,482 283,483 282,484 280,484 278,486 277,486 276,487 275,487 272,490 271,490 269,492 268,492 266,494 265,494 263,496 262,496 260,498 259,498 257,500 256,500 254,502 253,502 251,504 250,504 248,506 247,506 245,508 244,508 242,510 241,510 239,512 238,512 236,514 235,514 232,517 231,517 228,520 227,520 225,522 224,522 223,523 222,523 220,525 219,525 216,528 215,528 213,530 212,530 211,531 210,531 208,533 207,533 204,536 202,536 202,537 201,538 200,538 199,539 198,539 196,541 195,541 194,542 193,542 191,544 190,544 188,546 187,546 185,548 184,548 181,551 180,551 178,553 177,553 174,556 173,556 173,557 172,558 170,558 168,560 167,560 166,561 165,561 164,562 164,563 163,564 161,564 159,566 158,566 156,568 155,568 153,570 152,570 150,572 149,572 147,574 146,574 144,576 143,576 141,578 140,578 138,580 137,580 135,582 134,582 132,584 131,584 129,586 128,586 125,589 124,589 123,590 122,590 118,594 117,594 115,596 114,596 113,597 112,597 110,599 109,599 106,602 105,602 103,604 102,604 100,606 99,606 97,608 95,608 95,609 94,610 92,610 92,611 91,612 90,612 89,613 88,613 87,614 86,614 84,616 83,616 81,618 80,618 80,619 79,620 77,620 77,621 76,622 74,622 72,624 71,624 68,627 67,627 66,628 65,628 65,629 64,630 63,630 61,632 60,632 58,634 57,634 56,635 55,635 54,636 54,637 53,638 51,638 49,640 48,640 46,642 45,642 43,644 42,644 40,646 39,646 37,648 36,648 34,650 33,650 31,652 30,652 28,654 27,654 25,656 24,656 22,658 21,658 19,660 18,660 15,663 14,663 13,664 12,664 10,666 9,666 5,670 4,670 3,671 2,671 0,673 0,1843 1,1844 8,1844 9,1845 15,1845 16,1846 23,1846 24,1847 30,1847 31,1848 37,1848 38,1849 44,1849 45,1850 51,1850 52,1851 59,1851 60,1852 67,1852 68,1853 74,1853 75,1854 81,1854 82,1855 89,1855 90,1856 96,1856 98,1858 111,1858 112,1859 118,1859 120,1861 132,1861 134,1863 141,1863 142,1864 148,1864 149,1865 154,1865 155,1866 169,1866 171,1868 177,1868 178,1869 184,1869 185,1870 191,1870 192,1871 199,1871 200,1872 206,1872 207,1873 214,1873 215,1874 221,1874 222,1875 228,1875 229,1876 235,1876 236,1877 242,1877 243,1878 250,1878 251,1879 258,1879 259,1880 265,1880 266,1881 273,1881 274,1882 280,1882 281,1883 287,1883 288,1884 294,1884 295,1885 301,1885 302,1886 309,1886 310,1887 316,1887 317,1888 324,1888 325,1889 331,1889 332,1890 338,1890 339,1891 345,1891 346,1892 352,1892 353,1893 354,1893 355,1894 368,1894 370,1896 377,1896 378,1897 390,1897 391,1898 391,1899 404,1899 406,1901 413,1901 414,1902 426,1902 428,1904 435,1904 436,1905 441,1905 442,1906 449,1906 450,1907 456,1907 457,1908 464,1908 465,1909 471,1909 472,1910 478,1910 479,1911 485,1911 486,1912 493,1912 494,1913 500,1913 501,1914 508,1914 509,1915 515,1915 516,1916 522,1916 523,1917 529,1917 530,1918 537,1918 538,1919 544,1919 545,1920 551,1920 552,1921 559,1921 560,1922 566,1922 567,1923 574,1923 575,1924 581,1924 582,1925 588,1925 589,1926 595,1926 596,1927 602,1927 603,1928 610,1928 611,1929 612,1929 613,1930 625,1930 627,1932 639,1932 640,1933 646,1933 648,1935 662,1935 664,1937 670,1937 671,1938 677,1938 678,1939 684,1939 685,1940 698,1940 699,1941 699,1942 707,1942 708,1943 714,1943 715,1944 721,1944 722,1945 729,1945 730,1946 735,1946 736,1947 742,1947 743,1948 750,1948 751,1949 758,1949 759,1950 765,1950 766,1951 772,1951 773,1952 779,1952 780,1953 787,1953 788,1954 794,1954 795,1955 801,1955 802,1956 809,1956 810,1957 816,1957 817,1958 824,1958 825,1959 831,1959 832,1960 838,1960 839,1961 845,1961 846,1962 852,1962 853,1963 860,1963 861,1964 868,1964 869,1965 875,1965 876,1966 882,1966 884,1968 896,1968 897,1969 898,1969 899,1970 905,1970 906,1971 919,1971 921,1973 934,1973 935,1974 935,1975 942,1975 943,1976 956,1976 957,1977 957,1978 964,1978 965,1979 971,1979 972,1980 978,1980 979,1981 986,1981 987,1982 992,1982 993,1983 1000,1983 1001,1984 1008,1984 1009,1985 1015,1985 1016,1986 1022,1986 1023,1987 1029,1987 1030,1988 1036,1988 1037,1989 1044,1989 1045,1990 1051,1990 1052,1991 1059,1991 1060,1992 1066,1992 1067,1993 1074,1993 1075,1994 1081,1994 1082,1995 1088,1995 1089,1996 1095,1996 1096,1997 1102,1997 1103,1998 1110,1998 1111,1999 1118,1999 1119,2000 1125,2000 1126,2001 1132,2001 1133,2002 1139,2002 1141,2004 1154,2004 1155,2005 1156,2005 1157,2006 1169,2006 1170,2007 1176,2007 1178,2009 1190,2009 1192,2011 1199,2011 1200,2012 1207,2012 1208,2013 1214,2013 1215,2014 1227,2014 1229,2016 1235,2016 1236,2017 1243,2017 1244,2018 1250,2018 1251,2019 1258,2019 1259,2020 1265,2020 1266,2021 1272,2021 1273,2022 1280,2022 1281,2023 1287,2023 1288,2024 1294,2024 1295,2025 1301,2025 1302,2026 1309,2026 1310,2027 1317,2027 1318,2028 1324,2028 1325,2029 1331,2029 1332,2030 1338,2030 1339,2031 1345,2031 1346,2032 1352,2032 1353,2033 1361,2033 1362,2034 1368,2034 1369,2035 1375,2035 1377,2037 1389,2037 1390,2038 1397,2038 1398,2039 1405,2039 1406,2040 1412,2040 1413,2041 1413,2042 1427,2042 1428,2043 1428,2044 1434,2044 1435,2045 1448,2045 1449,2046 1449,2047 1463,2047 1463,1630 1462,1630 1461,1629 1461,1628 1447,1628 1445,1626 1439,1626 1438,1625 1425,1625 1424,1624 1424,1623 1411,1623 1410,1622 1410,1621 1402,1621 1401,1620 1394,1620 1393,1619 1388,1619 1387,1618 1381,1618 1380,1617 1373,1617 1372,1616 1366,1616 1365,1615 1359,1615 1358,1614 1351,1614 1350,1613 1344,1613 1343,1612 1337,1612 1336,1611 1329,1611 1328,1610 1322,1610 1321,1609 1315,1609 1314,1608 1308,1608 1307,1607 1299,1607 1298,1606 1292,1606 1291,1605 1285,1605 1284,1604 1278,1604 1277,1603 1271,1603 1270,1602 1264,1602 1263,1601 1256,1601 1255,1600 1248,1600 1247,1599 1241,1599 1240,1598 1234,1598 1233,1597 1227,1597 1225,1595 1212,1595 1211,1594 1204,1594 1202,1592 1190,1592 1188,1590 1175,1590 1174,1589 1168,1589 1167,1588 1167,1587 1153,1587 1152,1586 1152,1585 1145,1585 1144,1584 1138,1584 1137,1583 1131,1583 1130,1582 1117,1582 1116,1581 1116,1580 1110,1580 1109,1579 1101,1579 1100,1578 1094,1578 1093,1577 1087,1577 1086,1576 1080,1576 1079,1575 1072,1575 1071,1574 1065,1574 1064,1573 1058,1573 1057,1572 1050,1572 1049,1571 1043,1571 1042,1570 1036,1570 1035,1569 1028,1569 1027,1568 1021,1568 1020,1567 1014,1567 1013,1566 1007,1566 1006,1565 998,1565 997,1564 991,1564 990,1563 984,1563 983,1562 977,1562 976,1561 970,1561 968,1559 954,1559 953,1558 947,1558 946,1557 940,1557 939,1556 933,1556 931,1554 918,1554 917,1553 917,1552 911,1552 910,1551 896,1551 894,1549 881,1549 880,1548 880,1547 874,1547 873,1546 866,1546 865,1545 860,1545 859,1544 851,1544 850,1543 844,1543 843,1542 837,1542 836,1541 830,1541 829,1540 823,1540 822,1539 815,1539 814,1538 808,1538 807,1537 800,1537 799,1536 793,1536 792,1535 786,1535 785,1534 778,1534 777,1533 771,1533 770,1532 764,1532 763,1531 756,1531 755,1530 749,1530 748,1529 742,1529 741,1528 734,1528 733,1527 727,1527 726,1526 720,1526 719,1525 712,1525 711,1524 704,1524 703,1523 697,1523 695,1521 683,1521 682,1520 676,1520 674,1518 661,1518 660,1517 660,1516 646,1516 645,1515 638,1515 637,1514 637,1513 625,1513 623,1511 617,1511 616,1510 610,1510 609,1509 602,1509 601,1508 587,1508 586,1507 586,1506 580,1506 579,1505 573,1505 572,1504 566,1504 565,1503 558,1503 557,1502 550,1502 549,1501 543,1501 542,1500 536,1500 535,1499 528,1499 527,1498 521,1498 520,1497 514,1497 513,1496 506,1496 505,1495 499,1495 498,1494 492,1494 491,1493 485,1493 484,1492 477,1492 476,1491 470,1491 469,1490 463,1490 462,1489 454,1489 453,1488 447,1488 446,1487 440,1487 438,1485 426,1485 425,1484 419,1484 418,1483 411,1483 410,1482 403,1482 402,1481 402,1480 389,1480 387,1478 381,1478 380,1477 367,1477 366,1476 366,1475 352,1475 351,1474 351,1473 344,1473 343,1472 337,1472 336,1471 330,1471 329,1470 323,1470 322,1469 316,1469 315,1468 308,1468 307,1467 300,1467 299,1466 293,1466 292,1465 286,1465 285,1464 279,1464 278,1463 272,1463 271,1462 265,1462 264,1461 264,877 265,876 266,876 267,877 273,877 274,878 287,878 288,879 288,880 294,880 295,881 301,881 302,882 309,882 310,883 317,883 318,884 324,884 325,885 331,885 332,886 338,886 339,887 345,887 346,888 352,888 353,889 361,889 362,890 368,890 369,891 375,891 376,892 382,892 383,893 390,893 391,894 397,894 398,895 404,895 405,896 412,896 413,897 419,897 420,898 426,898 427,899 434,899 436,901 448,901 449,902 455,902 456,903 464,903 465,904 471,904 473,906 485,906 487,908 493,908 494,909 508,909 509,910 509,911 522,911 524,913 530,913 531,914 538,914 539,915 544,915 545,916 552,916 553,917 560,917 561,918 566,918 567,919 574,919 575,920 581,920 582,921 588,921 589,922 595,922 596,923 602,923 603,924 611,924 612,925 618,925 619,926 625,926 626,927 632,927 633,928 640,928 641,929 647,929 648,930 654,930 655,931 662,931 663,932 669,932 670,933 676,933 677,934 684,934 685,935 691,935 692,936 698,936 699,937 706,937 708,939 720,939 721,940 728,940 730,942 742,942 744,944 758,944 760,946 765,946 766,947 779,947 781,949 787,949 788,950 794,950 795,951 801,951 802,952 816,952 818,954 824,954 825,955 831,955 832,956 838,956 839,957 846,957 847,958 853,958 854,959 860,959 861,960 868,960 869,961 875,961 876,962 882,962 883,963 889,963 890,964 896,964 897,965 904,965 905,966 912,966 913,967 919,967 920,968 926,968 927,969 934,969 935,970 941,970 942,971 948,971 949,972 956,972 957,973 963,973 964,974 965,974 966,975 978,975 979,976 980,976 981,977 992,977 993,978 999,978 1001,980 1015,980 1017,982 1023,982 1024,983 1036,983 1038,985 1051,985 1052,986 1052,987 1059,987 1060,988 1067,988 1068,989 1074,989 1075,990 1082,990 1083,991 1088,991 1089,992 1095,992 1096,993 1103,993 1104,994 1110,994 1111,995 1118,995 1119,996 1125,996 1126,997 1132,997 1133,998 1140,998 1141,999 1146,999 1147,1000 1155,1000 1156,1001 1162,1001 1163,1002 1169,1002 1170,1003 1176,1003 1177,1004 1184,1004 1185,1005 1191,1005 1192,1006 1198,1006 1199,1007 1206,1007 1207,1008 1213,1008 1214,1009 1220,1009 1221,1010 1228,1010 1229,1011 1235,1011 1237,1013 1249,1013 1250,1014 1258,1014 1259,1015 1259,1016 1272,1016 1274,1018 1286,1018 1288,1020 1294,1020 1295,1021 1309,1021 1310,1022 1310,1023 1317,1023 1318,1024 1324,1024 1325,1025 1331,1025 1332,1026 1345,1026 1346,1027 1346,1028 1353,1028 1354,1029 1361,1029 1362,1030 1368,1030 1369,1031 1375,1031 1376,1032 1383,1032 1384,1033 1390,1033 1391,1034 1397,1034 1398,1035 1405,1035 1406,1036 1412,1036 1413,1037 1419,1037 1420,1038 1427,1038 1428,1039 1434,1039 1435,1040 1441,1040 1442,1041 1448,1041 1449,1042 1457,1042 1458,1043 1463,1043 1463,625 1462,625 1461,624 1455,624 1454,623 1447,623 1446,622 1439,622 1438,621 1432,621 1431,620 1425,620 1424,619 1418,619 1417,618 1411,618 1410,617 1402,617 1401,616 1395,616 1394,615 1388,615 1387,614 1381,614 1380,613 1373,613 1372,612 1366,612 1365,611 1359,611 1358,610 1351,610 1350,609 1344,609 1343,608 1337,608 1336,607 1330,607 1329,606 1322,606 1321,605 1315,605 1314,604 1308,604 1306,602 1292,602 1291,601 1285,601 1284,600 1284,599 1271,599 1270,598 1270,597 1256,597 1254,595 1248,595 1247,594 1234,594 1233,593 1233,592 1227,592 1226,591 1219,591 1218,590 1212,590 1211,589 1197,589 1196,588 1196,587 1190,587 1189,586 1182,586 1181,585 1175,585 1174,584 1168,584 1167,583 1161,583 1160,582 1153,582 1152,581 1146,581 1145,580 1138,580 1137,579 1131,579 1130,578 1124,578 1123,577 1117,577 1116,576 1110,576 1109,575 1101,575 1100,574 1094,574 1093,573 1087,573 1086,572 1080,572 1079,571 1072,571 1071,570 1065,570 1064,569 1058,569 1057,568 1050,568 1048,566 1036,566 1035,565 1028,565 1027,564 1021,564 1020,563 1014,563 1013,562 1013,561 998,561 997,560 997,559 991,559 990,558 977,558 976,557 976,556 969,556 968,555 962,555 961,554 954,554 953,553 946,553 945,552 940,552 939,551 932,551 931,550 926,550 925,549 918,549 917,548 911,548 910,547 903,547 902,546 896,546 895,545 888,545 887,544 881,544 880,543 874,543 873,542 867,542 866,541 860,541 859,540 852,540 851,539 844,539 843,538 837,538 836,537 830,537 829,536 823,536 822,535 816,535 815,534 808,534 807,533 800,533 799,532 793,532 792,531 791,531 790,530 778,530 777,529 777,528 764,528 763,527 756,527 754,525 742,525 740,523 734,523 733,522 726,522 725,521 720,521 719,520 704,520 703,519 703,518 697,518 696,517 690,517 689,516 683,516 682,515 675,515 674,514 668,514 667,513 661,513 660,512 653,512 652,511 646,511 645,510 638,510 637,509 631,509 630,508 624,508 623,507 617,507 616,506 610,506 609,505 602,505 601,504 594,504 593,503 587,503 586,502 580,502 579,501 573,501 572,500 566,500 565,499 559,499 558,498 551,498 550,497 543,497 542,496 536,496 535,495 528,495 527,494 521,494 520,493 520,492 506,492 505,491 499,491 497,489 485,489 483,487 470,487 469,486 469,485 463,485 462,484 447,484 446,483 446,482 440,482 439,481 433,481 432,480 426,480 425,479 418,479 417,478 411,478 410,477 403,477 402,476 396,476 395,475 389,475 388,474 382,474 381,473 375,473 374,472 367,472 366,471 360,471 359,470 352,470 351,469 344,469 343,468 337,468 336,467 330,467 329,466 323,466 322,465 316,465 315,464" stroke="#35d69f" /><polygon fill="#35d69f" points="556,0 556,417 557,418 564,418 565,419 572,419 573,420 579,420 580,421 586,421 587,422 593,422 594,423 600,423 601,424 607,424 608,425 609,425 610,426 623,426 624,427 630,427 632,429 645,429 646,430 646,431 659,431 661,433 668,433 669,434 681,434 683,436 690,436 691,437 696,437 697,438 704,438 705,439 711,439 712,440 719,440 720,441 726,441 727,442 733,442 734,443 740,443 741,444 748,444 749,445 755,445 756,446 762,446 763,447 770,447 771,448 777,448 778,449 784,449 785,450 791,450 792,451 799,451 800,452 806,452 807,453 814,453 815,454 822,454 823,455 829,455 830,456 836,456 837,457 843,457 844,458 850,458 851,459 857,459 858,460 865,460 866,461 867,461 868,462 880,462 882,464 894,464 895,465 901,465 903,467 917,467 919,469 925,469 926,470 933,470 934,471 939,471 940,472 953,472 954,473 954,474 960,474 961,475 969,475 970,476 976,476 977,477 984,477 985,478 990,478 991,479 998,479 999,480 1005,480 1006,481 1012,481 1013,482 1020,482 1021,483 1027,483 1028,484 1034,484 1035,485 1041,485 1042,486 1049,486 1050,487 1056,487 1057,488 1064,488 1065,489 1071,489 1072,490 1078,490 1079,491 1085,491 1086,492 1093,492 1094,493 1100,493 1101,494 1107,494 1108,495 1115,495 1116,496 1123,496 1124,497 1130,497 1131,498 1137,498 1139,500 1151,500 1152,501 1154,501 1155,502 1160,502 1161,503 1174,503 1176,505 1188,505 1190,507 1196,507 1197,508 1210,508 1212,510 1219,510 1220,511 1226,511 1227,512 1233,512 1234,513 1241,513 1242,514 1247,514 1248,515 1255,515 1256,516 1263,516 1264,517 1270,517 1271,518 1277,518 1278,519 1284,519 1285,520 1292,520 1293,521 1299,521 1300,522 1306,522 1307,523 1314,523 1315,524 1321,524 1322,525 1328,525 1329,526 1335,526 1336,527 1343,527 1344,528 1350,528 1351,529 1357,529 1358,530 1365,530 1366,531 1373,531 1374,532 1380,532 1381,533 1387,533 1388,534 1394,534 1396,536 1408,536 1409,537 1410,537 1411,538 1424,538 1425,539 1431,539 1433,541 1445,541 1447,543 1454,543 1455,544 1461,544 1462,545 1469,545 1470,546 1483,546 1484,547 1484,548 1490,548 1491,549 1498,549 1499,550 1505,550 1506,551 1513,551 1514,552 1520,552 1521,553 1527,553 1528,554 1534,554 1535,555 1541,555 1542,556 1549,556 1550,557 1556,557 1557,558 1564,558 1565,559 1571,559 1572,560 1578,560 1579,561 1586,561 1587,562 1593,562 1594,563 1600,563 1601,564 1607,564 1608,565 1615,565 1616,566 1622,566 1623,567 1630,567 1632,569 1644,569 1645,570 1651,570 1652,571 1658,571 1659,572 1667,572 1668,573 1668,574 1681,574 1682,575 1683,575 1684,576 1689,576 1690,577 1702,577 1704,579 1718,579 1720,581 1726,581 1727,582 1739,582 1741,584 1748,584 1749,585 1754,585 1755,586 1755,1170 1754,1171 1753,1171 1752,1170 1746,1170 1745,1169 1738,1169 1737,1168 1731,1168 1730,1167 1724,1167 1723,1166 1717,1166 1716,1165 1709,1165 1708,1164 1702,1164 1701,1163 1695,1163 1694,1162 1687,1162 1686,1161 1680,1161 1679,1160 1673,1160 1672,1159 1666,1159 1665,1158 1657,1158 1656,1157 1650,1157 1649,1156 1643,1156 1642,1155 1636,1155 1634,1153 1621,1153 1620,1152 1620,1151 1606,1151 1605,1150 1599,1150 1598,1149 1598,1148 1585,1148 1583,1146 1577,1146 1576,1145 1569,1145 1568,1144 1563,1144 1562,1143 1547,1143 1546,1142 1546,1141 1540,1141 1539,1140 1533,1140 1532,1139 1526,1139 1525,1138 1519,1138 1518,1137 1511,1137 1510,1136 1503,1136 1502,1135 1496,1135 1495,1134 1489,1134 1488,1133 1482,1133 1481,1132 1475,1132 1474,1131 1467,1131 1466,1130 1459,1130 1458,1129 1452,1129 1451,1128 1445,1128 1444,1127 1437,1127 1436,1126 1430,1126 1429,1125 1423,1125 1422,1124 1416,1124 1415,1123 1408,1123 1407,1122 1401,1122 1400,1121 1393,1121 1392,1120 1386,1120 1385,1119 1379,1119 1378,1118 1372,1118 1371,1117 1365,1117 1363,1115 1349,1115 1348,1114 1342,1114 1341,1113 1341,1112 1327,1112 1326,1111 1326,1110 1312,1110 1311,1109 1311,1108 1305,1108 1304,1107 1291,1107 1289,1105 1283,1105 1282,1104 1276,1104 1275,1103 1269,1103 1268,1102 1260,1102 1259,1101 1253,1101 1252,1100 1246,1100 1245,1099 1239,1099 1238,1098 1232,1098 1231,1097 1225,1097 1224,1096 1217,1096 1216,1095 1209,1095 1208,1094 1202,1094 1201,1093 1195,1093 1194,1092 1187,1092 1186,1091 1181,1091 1180,1090 1173,1090 1172,1089 1166,1089 1165,1088 1158,1088 1157,1087 1151,1087 1150,1086 1143,1086 1142,1085 1136,1085 1135,1084 1129,1084 1128,1083 1122,1083 1121,1082 1115,1082 1114,1081 1107,1081 1105,1079 1092,1079 1091,1078 1091,1077 1077,1077 1076,1076 1070,1076 1069,1075 1069,1074 1055,1074 1054,1073 1054,1072 1048,1072 1047,1071 1040,1071 1039,1070 1033,1070 1032,1069 1019,1069 1018,1068 1018,1067 1011,1067 1010,1066 1003,1066 1002,1065 996,1065 995,1064 989,1064 988,1063 982,1063 981,1062 975,1062 974,1061 967,1061 966,1060 959,1060 958,1059 952,1059 951,1058 945,1058 944,1057 938,1057 937,1056 931,1056 930,1055 924,1055 923,1054 916,1054 915,1053 908,1053 907,1052 901,1052 900,1051 893,1051 892,1050 886,1050 885,1049 879,1049 878,1048 872,1048 870,1046 857,1046 856,1045 850,1045 849,1044 842,1044 841,1043 835,1043 834,1042 834,1041 821,1041 820,1040 812,1040 811,1039 811,1038 798,1038 797,1037 797,1036 784,1036 782,1034 776,1034 775,1033 761,1033 760,1032 760,1031 754,1031 753,1030 747,1030 746,1029 740,1029 739,1028 732,1028 731,1027 725,1027 724,1026 718,1026 717,1025 709,1025 708,1024 702,1024 701,1023 695,1023 694,1022 688,1022 687,1021 681,1021 680,1020 674,1020 673,1019 666,1019 665,1018 658,1018 657,1017 651,1017 650,1016 644,1016 643,1015 637,1015 636,1014 630,1014 629,1013 622,1013 621,1012 614,1012 613,1011 607,1011 606,1010 600,1010 599,1009 592,1009 591,1008 585,1008 584,1007 578,1007 576,1005 563,1005 561,1003 556,1003 556,1422 564,1422 566,1424 579,1424 580,1425 580,1426 586,1426 587,1427 600,1427 601,1428 601,1429 608,1429 609,1430 616,1430 617,1431 623,1431 624,1432 631,1432 632,1433 637,1433 638,1434 645,1434 646,1435 652,1435 653,1436 659,1436 660,1437 667,1437 668,1438 674,1438 675,1439 681,1439 682,1440 689,1440 690,1441 696,1441 697,1442 703,1442 704,1443 710,1443 711,1444 719,1444 720,1445 726,1445 727,1446 733,1446 734,1447 740,1447 741,1448 747,1448 748,1449 755,1449 756,1450 762,1450 763,1451 770,1451 771,1452 777,1452 778,1453 784,1453 786,1455 799,1455 801,1457 808,1457 809,1458 821,1458 823,1460 836,1460 837,1461 837,1462 844,1462 845,1463 851,1463 852,1464 858,1464 859,1465 867,1465 868,1466 873,1466 874,1467 880,1467 881,1468 888,1468 889,1469 894,1469 895,1470 902,1470 903,1471 909,1471 910,1472 917,1472 918,1473 924,1473 925,1474 931,1474 932,1475 939,1475 940,1476 946,1476 947,1477 953,1477 954,1478 960,1478 961,1479 968,1479 969,1480 975,1480 976,1481 983,1481 984,1482 990,1482 991,1483 997,1483 998,1484 1004,1484 1005,1485 1011,1485 1012,1486 1020,1486 1022,1488 1034,1488 1035,1489 1041,1489 1042,1490 1043,1490 1044,1491 1056,1491 1058,1493 1071,1493 1072,1494 1073,1494 1074,1495 1079,1495 1080,1496 1093,1496 1094,1497 1094,1498 1102,1498 1103,1499 1108,1499 1109,1500 1116,1500 1117,1501 1130,1501 1131,1502 1131,1503 1138,1503 1139,1504 1145,1504 1146,1505 1152,1505 1153,1506 1159,1506 1160,1507 1167,1507 1168,1508 1174,1508 1175,1509 1181,1509 1182,1510 1189,1510 1190,1511 1196,1511 1197,1512 1203,1512 1204,1513 1210,1513 1211,1514 1218,1514 1219,1515 1225,1515 1226,1516 1233,1516 1234,1517 1240,1517 1241,1518 1247,1518 1248,1519 1254,1519 1255,1520 1263,1520 1264,1521 1270,1521 1271,1522 1277,1522 1278,1523 1279,1523 1280,1524 1291,1524 1292,1525 1298,1525 1299,1526 1306,1526 1307,1527 1314,1527 1316,1529 1328,1529 1330,1531 1337,1531 1338,1532 1350,1532 1351,1533 1351,1534 1365,1534 1367,1536 1373,1536 1374,1537 1381,1537 1382,1538 1387,1538 1388,1539 1395,1539 1396,1540 1402,1540 1403,1541 1409,1541 1410,1542 1417,1542 1418,1543 1424,1543 1425,1544 1432,1544 1433,1545 1438,1545 1439,1546 1446,1546 1447,1547 1453,1547 1454,1548 1460,1548 1461,1549 1468,1549 1469,1550 1476,1550 1477,1551 1483,1551 1484,1552 1490,1552 1491,1553 1497,1553 1498,1554 1504,1554 1505,1555 1512,1555 1513,1556 1519,1556 1520,1557 1527,1557 1528,1558 1534,1558 1535,1559 1541,1559 1542,1560 1548,1560 1549,1561 1550,1561 1551,1562 1564,1562 1565,1563 1571,1563 1573,1565 1585,1565 1587,1567 1600,1567 1602,1569 1608,1569 1609,1570 1622,1570 1624,1572 1631,1572 1632,1573 1638,1573 1639,1574 1644,1574 1645,1575 1658,1575 1660,1577 1667,1577 1668,1578 1674,1578 1675,1579 1682,1579 1683,1580 1689,1580 1690,1581 1696,1581 1697,1582 1701,1582 1701,1580 1706,1575 1708,1575 1709,1574 1710,1574 1712,1572 1713,1572 1713,1571 1714,1570 1716,1570 1719,1567 1721,1567 1721,1566 1722,1565 1724,1565 1724,1564 1725,1563 1727,1563 1728,1562 1729,1562 1729,1561 1730,1560 1732,1560 1732,1559 1733,1558 1735,1558 1735,1557 1736,1556 1737,1556 1738,1555 1739,1555 1740,1554 1741,1554 1742,1553 1743,1553 1745,1551 1746,1551 1748,1549 1749,1549 1750,1548 1751,1548 1753,1546 1754,1546 1756,1544 1757,1544 1758,1543 1759,1543 1761,1541 1762,1541 1764,1539 1765,1539 1766,1538 1767,1538 1769,1536 1770,1536 1770,1535 1771,1534 1773,1534 1773,1533 1774,1532 1776,1532 1777,1531 1778,1531 1780,1529 1781,1529 1783,1527 1784,1527 1786,1525 1787,1525 1788,1524 1789,1524 1792,1521 1793,1521 1794,1520 1795,1520 1797,1518 1798,1518 1800,1516 1801,1516 1802,1515 1803,1515 1805,1513 1806,1513 1807,1512 1808,1512 1810,1510 1811,1510 1812,1509 1813,1509 1814,1508 1815,1508 1817,1506 1818,1506 1819,1505 1820,1505 1822,1503 1823,1503 1823,1502 1824,1501 1826,1501 1827,1500 1828,1500 1830,1498 1831,1498 1831,1497 1832,1496 1834,1496 1835,1495 1836,1495 1836,1494 1837,1493 1839,1493 1839,1492 1840,1491 1842,1491 1842,1490 1843,1489 1844,1489 1845,1488 1847,1488 1847,1487 1848,1486 1849,1486 1850,1485 1851,1485 1853,1483 1854,1483 1855,1482 1856,1482 1858,1480 1859,1480 1861,1478 1862,1478 1863,1477 1864,1477 1866,1475 1867,1475 1869,1473 1870,1473 1871,1472 1872,1472 1874,1470 1875,1470 1877,1468 1878,1468 1879,1467 1880,1467 1882,1465 1883,1465 1885,1463 1887,1463 1890,1460 1892,1460 1892,1459 1893,1458 1894,1458 1895,1457 1896,1457 1896,1456 1897,1455 1900,1455 1900,1454 1902,1452 1903,1452 1905,1450 1906,1450 1907,1449 1908,1449 1910,1447 1911,1447 1912,1446 1913,1446 1915,1444 1916,1444 1917,1443 1918,1443 1919,1442 1920,1442 1922,1440 1923,1440 1924,1439 1925,1439 1927,1437 1928,1437 1930,1435 1931,1435 1932,1434 1933,1434 1935,1432 1936,1432 1938,1430 1939,1430 1940,1429 1941,1429 1941,1428 1942,1427 1944,1427 1945,1426 1945,1425 1946,1424 1948,1424 1950,1422 1952,1422 1955,1419 1956,1419 1958,1417 1959,1417 1960,1416 1961,1416 1963,1414 1964,1414 1966,1412 1967,1412 1968,1411 1969,1411 1971,1409 1972,1409 1974,1407 1975,1407 1976,1406 1977,1406 1979,1404 1980,1404 1982,1402 1983,1402 1984,1401 1985,1401 1986,1400 1987,1400 1989,1398 1990,1398 1991,1397 1992,1397 1993,1396 1994,1396 1996,1394 1997,1394 1998,1393 1998,1392 1999,1391 2002,1391 2002,1390 2003,1389 2005,1389 2006,1388 2006,1387 2007,1386 2009,1386 2009,1385 2010,1384 2011,1384 2012,1383 2014,1383 2014,1382 2015,1381 2017,1381 2017,1380 2018,1379 2019,1379 2019,204 2018,204 2017,203 2011,203 2009,201 1996,201 1995,200 1988,200 1987,199 1981,199 1980,198 1974,198 1973,197 1973,196 1958,196 1957,195 1957,194 1951,194 1950,193 1937,193 1936,192 1936,191 1922,191 1921,190 1921,189 1915,189 1914,188 1900,188 1899,187 1899,186 1893,186 1892,185 1886,185 1885,184 1878,184 1877,183 1871,183 1870,182 1864,182 1863,181 1856,181 1855,180 1848,180 1847,179 1841,179 1840,178 1834,178 1833,177 1827,177 1826,176 1820,176 1819,175 1812,175 1811,174 1804,174 1803,173 1797,173 1796,172 1790,172 1789,171 1783,171 1782,170 1776,170 1775,169 1769,169 1768,168 1760,168 1759,167 1753,167 1752,166 1746,166 1745,165 1738,165 1737,164 1731,164 1730,163 1724,163 1723,162 1717,162 1716,161 1716,160 1702,160 1700,158 1694,158 1693,157 1680,157 1679,156 1679,155 1666,155 1665,154 1665,153 1657,153 1656,152 1650,152 1649,151 1643,151 1642,150 1635,150 1634,149 1628,149 1627,148 1621,148 1620,147 1614,147 1613,146 1606,146 1605,145 1599,145 1598,144 1592,144 1591,143 1585,143 1584,142 1577,142 1576,141 1570,141 1569,140 1563,140 1562,139 1555,139 1554,138 1547,138 1546,137 1540,137 1539,136 1533,136 1532,135 1526,135 1525,134 1519,134 1518,133 1511,133 1510,132 1503,132 1502,131 1496,131 1495,130 1489,130 1488,129 1482,129 1480,127 1467,127 1466,126 1459,126 1457,124 1445,124 1443,122 1430,122 1428,120 1423,120 1422,119 1408,119 1407,118 1407,117 1400,117 1399,116 1393,116 1392,115 1386,115 1385,114 1372,114 1371,113 1371,112 1364,112 1363,111 1356,111 1355,110 1349,110 1348,109 1342,109 1341,108 1335,108 1334,107 1327,107 1326,106 1320,106 1319,105 1312,105 1311,104 1305,104 1304,103 1298,103 1297,102 1291,102 1290,101 1283,101 1282,100 1276,100 1275,99 1269,99 1268,98 1261,98 1260,97 1253,97 1252,96 1246,96 1245,95 1239,95 1238,94 1232,94 1231,93 1225,93 1224,92 1223,92 1222,91 1209,91 1208,90 1202,90 1201,89 1195,89 1194,88 1187,88 1186,87 1186,86 1173,86 1172,85 1172,84 1165,84 1164,83 1151,83 1150,82 1150,81 1136,81 1135,80 1135,79 1129,79 1128,78 1121,78 1120,77 1115,77 1114,76 1106,76 1105,75 1099,75 1098,74 1092,74 1091,73 1085,73 1084,72 1077,72 1076,71 1070,71 1069,70 1062,70 1061,69 1055,69 1054,68 1048,68 1047,67 1041,67 1040,66 1033,66 1032,65 1026,65 1025,64 1019,64 1018,63 1011,63 1010,62 1003,62 1002,61 996,61 995,60 989,60 988,59 982,59 981,58 975,58 974,57 967,57 966,56 959,56 958,55 952,55 951,54 951,53 938,53 937,52 931,52 929,50 916,50 915,49 915,48 901,48 899,46 893,46 892,45 879,45 878,44 878,43 872,43 871,42 864,42 863,41 857,41 856,40 842,40 841,39 841,38 835,38 834,37 828,37 827,36 821,36 820,35 812,35 811,34 805,34 804,33 798,33 797,32 791,32 790,31 784,31 783,30 776,30 775,29 769,29 768,28 761,28 760,27 754,27 753,26 747,26 746,25 740,25 739,24 732,24 731,23 725,23 724,22 718,22 717,21 710,21 709,20 702,20 701,19 695,19 693,17 681,17 680,16 674,16 673,15 666,15 665,14 658,14 657,13 657,12 644,12 642,10 636,10 635,9 622,9 621,8 621,7 607,7 606,6 606,5 599,5 598,4 592,4 591,3 585,3 584,2 578,2 577,1 571,1 570,0" stroke="#35d69f" /></svg>