<?xml version="1.0" encoding="UTF-8"?><svg id="Capa_2" xmlns="http://www.w3.org/2000/svg" xmlns:xlink="http://www.w3.org/1999/xlink" viewBox="0 0 234.32 48.1"><defs><style>.cls-1{fill:#fff;}.cls-1,.cls-2{stroke-width:0px;}.cls-2{fill:url(#Degradado_sin_nombre_4);}</style><linearGradient id="Degradado_sin_nombre_4" x1="155.02" y1="-70.08" x2="207.6" y2="-70.08" gradientTransform="translate(-145.14 115.45) rotate(-7)" gradientUnits="userSpaceOnUse"><stop offset="0" stop-color="#de2fda"/><stop offset="1" stop-color="#8f02fd"/></linearGradient></defs><g id="Capa_1-2"><path class="cls-1" d="m85.54,34.94h-16.61l-2.82,6.97h-8.35l15.58-35.88h8.35l15.33,35.88h-8.66l-2.82-6.97Zm-2.61-6.51l-5.64-13.94-5.69,13.94h11.33Z"/><path class="cls-1" d="m116.09,14.03v7.43c-5.64-.51-9.12,2.51-9.12,7.18v13.27h-7.89V14.33h7.89v4.97c1.9-3.38,5.02-5.23,9.12-5.28Z"/><path class="cls-1" d="m135.87,14.03v7.43c-5.64-.51-9.12,2.51-9.12,7.18v13.27h-7.89V14.33h7.89v4.97c1.9-3.38,5.02-5.23,9.12-5.28Z"/><path class="cls-1" d="m165.85,28.12c0,8.41-5.95,14.09-14.76,14.09s-14.81-5.69-14.81-14.09,5.95-14.04,14.81-14.04,14.76,5.59,14.76,14.04Zm-21.68.1c0,4.51,2.82,7.58,6.92,7.58s6.87-3.08,6.87-7.58-2.82-7.59-6.87-7.59-6.92,3.08-6.92,7.59Z"/><path class="cls-1" d="m172.72,14.33l6.15,19.73,5.95-19.73h7.74l6.05,19.73,6.05-19.73h7.79l-10.05,27.58h-7.89l-5.95-18.2-5.89,18.2h-7.89l-10.1-27.52,8.05-.05Z"/><path class="cls-1" d="m222.99,19.77c-1.85,0-3.18.62-3.18,2.05,0,4.15,14.56,2.05,14.5,11.79,0,5.64-4.97,8.61-11.22,8.61-4.46,0-8.82-1.33-11.94-3.84l2.56-5.33c2.87,2.2,6.56,3.43,9.58,3.43,2,0,3.49-.67,3.49-2.15,0-4.41-14.3-2.05-14.3-11.74,0-5.69,4.87-8.61,10.87-8.61,3.79,0,7.69,1.13,10.76,3.08l-2.72,5.38c-3.02-1.69-6.1-2.67-8.41-2.67Z"/><path class="cls-2" d="m29.45,24.43c-.34,2.77-2.86,4.75-5.64,4.41-2.77-.34-4.75-2.86-4.41-5.64.34-2.77,2.86-4.75,5.64-4.41.68.08,1.33.3,1.92.64l4.85-3.79.97-8.01c.06-.5.32-.95.71-1.26l7.04-5.52c.83-.65,2.02-.5,2.66.33.31.4.45.9.39,1.4l-.84,6.91,6.91.84c1.04.13,1.78,1.07,1.65,2.11-.06.5-.32.95-.71,1.26l-7.04,5.52c-.4.31-.9.45-1.4.39l-8.01-.97-4.85,3.79c.18.63.24,1.31.16,2.01Zm-2.41,23.49c-1.19.15-2.4.21-3.63.17-6.42-.17-12.39-2.83-16.81-7.49S-.16,29.83,0,23.41C.36,10.16,11.44-.35,24.69,0c1.07.03,2.14.13,3.2.3,1.86.3,3.13,2.05,2.83,3.91-.3,1.86-2.05,3.13-3.91,2.83-.76-.12-1.53-.19-2.3-.21-9.5-.25-17.42,7.27-17.68,16.76-.12,4.6,1.55,8.97,4.72,12.31,3.17,3.34,7.44,5.24,12.04,5.37,7.58.2,14.31-4.48,16.76-11.64.47-1.37.76-2.8.87-4.25.14-1.88,1.78-3.28,3.66-3.14,1.88.14,3.29,1.78,3.14,3.66-.16,2.03-.57,4.02-1.22,5.94-3.02,8.84-10.72,14.96-19.76,16.07Z"/></g></svg>