<?xml version="1.0" encoding="UTF-8"?><svg id="Capa_2" xmlns="http://www.w3.org/2000/svg" xmlns:xlink="http://www.w3.org/1999/xlink" viewBox="0 0 51.32 48.1"><defs><style>.cls-1{fill:url(#Degradado_sin_nombre_4);stroke-width:0px;}</style><linearGradient id="Degradado_sin_nombre_4" x1="123.12" y1="-72.03" x2="175.71" y2="-72.03" gradientTransform="translate(-113.25 113.49) rotate(-7)" gradientUnits="userSpaceOnUse"><stop offset="0" stop-color="#de2fda"/><stop offset="1" stop-color="#8f02fd"/></linearGradient></defs><g id="Capa_1-2"><path class="cls-1" d="m29.45,24.43c-.34,2.77-2.86,4.75-5.64,4.41-2.77-.34-4.75-2.86-4.41-5.64.34-2.77,2.86-4.75,5.64-4.41.68.08,1.33.3,1.92.64l4.85-3.79.97-8.01c.06-.5.32-.95.71-1.26l7.04-5.52c.83-.65,2.02-.5,2.66.33.31.4.45.9.39,1.4l-.84,6.91,6.91.84c1.04.13,1.78,1.07,1.65,2.11-.06.5-.32.95-.71,1.26l-7.04,5.52c-.4.31-.9.45-1.4.39l-8.01-.97-4.85,3.79c.18.63.24,1.31.16,2.01Zm-2.41,23.49c-1.19.15-2.4.21-3.63.17-6.42-.17-12.39-2.83-16.81-7.49S-.16,29.83,0,23.41C.36,10.16,11.44-.35,24.69,0c1.07.03,2.14.13,3.2.3,1.86.3,3.13,2.05,2.83,3.91-.3,1.86-2.05,3.13-3.91,2.83-.76-.12-1.53-.19-2.3-.21-9.5-.25-17.42,7.27-17.68,16.76-.12,4.6,1.55,8.97,4.72,12.31,3.17,3.34,7.44,5.24,12.04,5.37,7.58.2,14.31-4.48,16.76-11.64.47-1.37.76-2.8.87-4.25.14-1.88,1.78-3.28,3.66-3.14,1.88.14,3.29,1.78,3.14,3.66-.16,2.03-.57,4.02-1.22,5.94-3.02,8.84-10.72,14.96-19.76,16.07Z"/></g></svg>
